<?xml version="1.0" standalone="no"?>
<!DOCTYPE svg PUBLIC "-//W3C//DTD SVG 20010904//EN"
 "http://www.w3.org/TR/2001/REC-SVG-20010904/DTD/svg10.dtd">
<svg version="1.0" xmlns="http://www.w3.org/2000/svg"
 width="653.000000pt" height="313.000000pt" viewBox="0 0 653.000000 313.000000"
 preserveAspectRatio="xMidYMid meet">

<g transform="translate(0.000000,313.000000) scale(0.100000,-0.100000)"
fill="#000000" stroke="none">
<path d="M4693 3123 c3 -4 93 -153 200 -329 l196 -322 -19 -268 c-14 -191 -16
-270 -9 -275 17 -10 270 -22 279 -12 5 6 41 466 40 520 0 6 110 146 245 310
l246 298 -68 6 c-37 4 -115 9 -173 13 l-105 7 -135 -190 c-74 -105 -137 -187
-141 -183 -4 4 -55 97 -112 207 l-105 200 -79 6 c-215 18 -265 20 -260 12z"/>
<path d="M2410 3058 c0 -7 39 -165 87 -350 l88 -338 56 0 c53 0 59 3 88 36 18
19 42 52 55 72 l24 37 -59 275 c-32 151 -58 276 -59 278 0 1 -63 2 -140 2
-105 0 -140 -3 -140 -12z"/>
<path d="M3065 3058 c-10 -31 -53 -208 -49 -208 4 0 111 182 120 204 5 13 -1
16 -30 16 -20 0 -39 -6 -41 -12z"/>
<path d="M3142 3028 c-16 -24 -55 -87 -86 -141 -53 -91 -61 -113 -107 -298
-27 -110 -49 -204 -49 -209 0 -6 44 -10 104 -10 l103 0 38 148 c21 81 41 155
44 165 5 12 18 -27 40 -110 18 -70 37 -145 42 -165 l10 -38 113 0 113 0 -63
248 c-35 136 -75 293 -90 350 l-27 102 -78 0 -78 0 -29 -42z"/>
<path d="M3710 3067 c0 -2 -31 -153 -70 -336 -38 -183 -70 -340 -70 -347 0
-12 22 -14 122 -12 l122 3 67 259 68 260 -62 85 -63 86 -57 3 c-31 2 -57 1
-57 -1z"/>
<path d="M3850 3063 c0 -11 92 -143 100 -143 4 0 12 24 19 53 6 28 14 62 17
75 6 21 4 22 -65 22 -39 0 -71 -3 -71 -7z"/>
<path d="M1190 2991 c-16 -32 -240 -644 -240 -659 0 -9 9 -12 28 -8 15 2 164
8 332 11 168 3 323 8 346 11 l41 6 -120 316 c-65 175 -124 323 -129 330 -7 8
-46 12 -129 12 -106 0 -119 -2 -129 -19z m194 -425 c31 -103 56 -194 56 -202
0 -11 -24 -14 -115 -14 -101 0 -115 2 -115 17 0 18 112 395 116 391 1 -2 27
-88 58 -192z"/>
<path d="M1925 2998 c-3 -7 -4 -155 -3 -328 l3 -315 55 3 c30 2 85 12 123 23
l67 20 -2 302 -3 302 -118 3 c-89 2 -119 -1 -122 -10z"/>
<path d="M4147 2978 c-8 -18 -29 -76 -47 -129 l-34 -96 73 -94 c40 -52 76 -95
80 -97 5 -1 21 40 36 93 16 52 31 92 34 89 3 -3 31 -87 61 -187 l56 -182 122
-3 c67 -1 122 0 122 2 0 3 -39 108 -86 233 -48 125 -100 264 -116 308 -16 44
-35 83 -41 87 -7 4 -65 8 -129 8 l-118 0 -13 -32z"/>
<path d="M754 2966 c-94 -42 -79 -154 22 -171 68 -12 89 -21 89 -40 0 -32 -49
-40 -97 -16 -41 20 -43 20 -71 2 l-29 -18 27 -22 c64 -50 167 -50 217 -1 50
50 31 130 -34 145 -13 3 -41 9 -63 13 -30 6 -41 13 -43 29 -5 32 31 39 80 14
39 -19 42 -19 64 -3 31 22 30 27 -10 51 -44 28 -112 35 -152 17z"/>
<path d="M210 2921 c0 -41 12 -116 36 -228 3 -15 12 -23 24 -23 19 0 20 7 20
150 l0 150 -40 0 -40 0 0 -49z"/>
<path d="M320 2940 c0 -28 2 -30 40 -30 l40 0 0 -120 0 -120 35 0 35 0 0 120
0 120 40 0 c38 0 40 2 40 30 l0 30 -115 0 -115 0 0 -30z"/>
<path d="M580 2939 c0 -18 7 -37 16 -44 15 -10 15 -13 0 -27 -20 -20 -21 -38
-2 -38 27 0 56 50 56 96 0 44 0 44 -35 44 -33 0 -35 -2 -35 -31z"/>
<path d="M6034 2895 c-75 -16 -113 -35 -164 -81 -73 -66 -102 -210 -61 -299
42 -90 112 -126 313 -160 181 -31 218 -55 186 -122 -20 -43 -80 -67 -163 -66
-78 1 -125 17 -198 69 l-48 34 -79 -51 c-44 -28 -80 -55 -80 -59 0 -13 107
-98 150 -120 80 -41 147 -53 274 -48 132 5 181 19 258 74 87 62 132 208 94
309 -35 90 -122 139 -301 170 -171 29 -205 45 -205 97 0 31 27 64 66 78 66 26
188 -6 253 -65 l36 -33 80 55 c44 31 82 58 85 60 10 9 -86 82 -145 113 -108
55 -233 71 -351 45z"/>
<path d="M211 2723 c-1 -23 4 -45 9 -48 12 -8 12 42 0 70 -7 16 -9 11 -9 -22z"/>
<path d="M3989 2550 l-67 -180 124 0 123 0 25 82 25 82 -73 95 c-40 52 -77 96
-82 98 -5 2 -39 -78 -75 -177z"/>
<path d="M2763 2425 l-43 -55 61 0 c52 0 60 2 55 16 -3 9 -9 33 -12 55 -4 21
-9 39 -13 39 -3 0 -25 -25 -48 -55z"/>
<path d="M2115 2370 c-16 -7 -13 -9 18 -9 20 -1 37 4 37 9 0 12 -27 12 -55 0z"/>
<path d="M2899 2349 c-5 -3 -15 -25 -23 -50 l-13 -44 -9 45 -10 45 -72 3 c-64
3 -76 0 -106 -23 -18 -14 -38 -25 -44 -25 -17 0 -16 -5 35 -201 l46 -179 143
0 c127 0 143 2 148 18 3 9 26 98 51 197 26 99 48 188 51 197 4 15 -7 17 -92
20 -53 2 -100 0 -105 -3z"/>
<path d="M2050 2341 c-30 -4 -72 -13 -93 -21 l-38 -14 3 -146 3 -145 315 0
315 0 3 103 3 102 -196 0 -195 0 0 65 0 65 -32 -1 c-18 -1 -58 -5 -88 -8z"/>
<path d="M2597 2330 c7 -25 21 -25 53 0 l25 20 -42 0 c-36 0 -41 -2 -36 -20z"/>
<path d="M3290 2343 c1 -4 25 -100 54 -213 l53 -205 132 -3 c105 -2 136 0 153
13 18 12 33 56 74 215 l51 200 -123 0 -123 0 -7 -37 c-10 -59 -17 -62 -29 -13
l-11 45 -112 3 c-62 1 -112 -1 -112 -5z"/>
<path d="M3857 2193 c-32 -87 -57 -161 -57 -164 0 -3 56 31 124 76 137 91 250
150 371 194 43 16 81 34 83 40 3 8 -62 11 -230 11 l-234 0 -57 -157z"/>
<path d="M4403 2343 c9 -2 25 -2 35 0 9 3 1 5 -18 5 -19 0 -27 -2 -17 -5z"/>
<path d="M4478 2338 c-32 -6 -58 -14 -58 -18 0 -30 318 -310 352 -310 15 0 8
24 -51 180 l-58 155 -64 1 c-35 1 -90 -3 -121 -8z"/>
<path d="M1920 2330 c0 -13 11 -13 30 0 12 8 11 10 -7 10 -13 0 -23 -4 -23
-10z"/>
<path d="M1469 2326 c-2 -2 -123 -6 -268 -10 -146 -4 -265 -8 -266 -9 -3 -5
-97 -264 -102 -280 -5 -16 4 -17 128 -15 l133 3 24 78 24 78 199 -2 198 -1 95
38 c53 20 96 42 96 47 0 6 -5 26 -12 44 l-12 33 -116 0 c-64 0 -119 -2 -121
-4z"/>
<path d="M4305 2289 c-122 -45 -232 -102 -367 -192 l-123 -82 114 -3 c63 -1
118 1 123 6 4 4 19 39 31 77 l24 70 182 0 183 0 24 -77 25 -78 107 0 c103 1
106 1 86 18 -12 9 -57 45 -100 79 -44 34 -110 96 -148 138 -37 41 -70 75 -74
75 -4 -1 -43 -14 -87 -31z"/>
<path d="M1625 2188 c-55 -23 -102 -43 -104 -44 -2 -2 5 -31 16 -66 l19 -63
132 -3 c102 -2 132 0 131 10 -1 24 -75 202 -84 204 -6 2 -55 -15 -110 -38z"/>
<path d="M1130 1851 c-75 -24 -109 -43 -153 -86 -60 -58 -80 -107 -85 -207 -4
-75 -1 -93 18 -132 27 -58 88 -110 156 -135 29 -11 121 -32 206 -46 162 -27
195 -40 212 -89 12 -32 -13 -70 -65 -101 -54 -32 -196 -29 -269 6 -31 14 -72
40 -92 58 -33 29 -40 31 -60 20 -20 -11 -153 -96 -168 -107 -3 -2 21 -28 53
-57 112 -102 228 -145 398 -145 219 0 381 85 426 225 9 28 10 25 16 -35 9 -88
62 -195 124 -249 159 -141 427 -170 632 -70 63 31 161 114 161 137 0 8 -38 12
-122 15 l-123 3 126 2 126 2 7 69 c3 39 17 101 31 139 25 69 25 71 25 426 l0
356 -144 0 -145 0 -3 -413 -3 -413 -25 -49 c-37 -71 -91 -98 -186 -92 -90 5
-134 30 -166 95 -23 47 -23 51 -26 460 l-3 412 -145 0 -144 0 0 -76 0 -76 -51
41 c-64 50 -155 96 -234 116 -81 21 -235 19 -305 -4z m281 -208 c26 -12 65
-37 87 -58 26 -23 46 -34 54 -29 7 4 45 32 85 61 40 29 74 53 77 53 4 0 6 -91
6 -202 l0 -202 -26 40 c-54 83 -154 128 -363 164 -68 11 -137 28 -153 36 -68
35 -51 118 32 153 37 16 149 7 201 -16z"/>
<path d="M2900 1630 l0 -221 53 40 c69 52 178 106 257 127 36 10 69 20 73 24
4 4 -23 60 -61 126 l-68 119 -127 3 -127 3 0 -221z"/>
<path d="M3520 1830 c0 -23 10 -26 28 -8 18 18 15 28 -8 28 -13 0 -20 -7 -20
-20z"/>
<path d="M3562 1818 l-41 -33 -1 -285 c-1 -324 7 -311 -86 -147 l-57 100 -43
-83 c-23 -45 -47 -87 -53 -93 -6 -6 -11 -17 -11 -24 0 -8 45 -92 101 -188
l101 -175 72 -2 71 -2 -62 -3 c-63 -4 -84 -18 -40 -28 12 -2 68 -3 125 -2
l102 2 0 497 0 498 -69 0 c-63 0 -72 -3 -109 -32z"/>
<path d="M3935 1838 c-3 -7 -4 -231 -3 -498 l3 -485 116 -3 c89 -2 120 0 130
11 8 8 90 145 184 305 93 161 172 292 176 292 4 0 8 -117 8 -261 0 -143 1
-263 4 -265 5 -5 125 120 180 187 l37 46 0 342 0 341 -123 0 -124 0 -179 -315
-179 -315 -3 315 -2 315 -110 0 c-79 0 -112 -4 -115 -12z"/>
<path d="M4885 1823 c10 -15 39 -55 63 -88 l44 -60 -5 39 c-10 61 -57 130 -92
134 l-28 4 18 -29z"/>
<path d="M4970 1795 c16 -30 32 -76 36 -102 5 -39 24 -73 99 -178 51 -71 104
-148 119 -169 l26 -39 0 -228 0 -227 120 -1 120 0 0 230 0 230 185 260 c102
143 185 264 185 270 0 5 -59 9 -139 9 l-139 0 -104 -170 c-56 -93 -105 -169
-108 -169 -3 0 -52 76 -108 169 l-104 170 -108 0 -109 0 29 -55z"/>
<path d="M3200 1561 c-77 -25 -164 -71 -237 -125 l-63 -46 0 -250 c0 -137 3
-250 7 -250 5 0 56 16 115 36 l108 36 0 78 0 79 -52 -24 c-74 -35 -82 -33 -73
13 9 52 52 156 91 223 24 41 34 70 34 100 0 42 0 43 16 21 l15 -22 42 51 c77
94 80 99 65 98 -7 0 -38 -8 -68 -18z"/>
<path d="M3264 1528 c-22 -24 -52 -60 -68 -80 l-28 -37 42 -71 c34 -57 45 -68
56 -59 18 15 94 166 94 187 0 14 -47 102 -54 102 -2 0 -21 -19 -42 -42z"/>
<path d="M3093 1290 c-36 -63 -81 -186 -71 -195 9 -9 97 31 104 48 2 7 3 56 2
108 l-3 94 -32 -55z"/>
<path d="M0 910 l0 -270 70 0 70 0 0 270 0 270 -70 0 -70 0 0 -270z"/>
<path d="M240 910 l0 -271 63 3 62 3 -1 158 c0 86 2 157 5 157 4 0 24 -28 45
-62 21 -35 35 -55 32 -46 -11 36 -46 230 -46 259 0 59 -13 69 -90 69 l-70 0 0
-270z"/>
<path d="M580 1015 c0 -91 -3 -165 -7 -165 -5 0 -41 59 -81 130 -40 72 -74
130 -76 130 -7 0 16 -134 40 -230 18 -72 39 -126 66 -172 l40 -68 69 0 69 0 0
270 0 270 -60 0 -60 0 0 -165z"/>
<path d="M4742 1111 c-12 -16 -60 -70 -107 -119 -63 -66 -85 -97 -85 -116 l0
-26 110 1 110 1 0 144 c0 79 -1 144 -3 144 -2 0 -13 -13 -25 -29z"/>
<path d="M2701 1034 c0 -11 3 -14 6 -6 3 7 2 16 -1 19 -3 4 -6 -2 -5 -13z"/>
<path d="M2676 975 c-12 -74 -13 -84 -5 -80 16 11 29 72 20 96 -8 22 -9 21
-15 -16z"/>
<path d="M3020 910 l-75 -29 93 0 92 -1 0 30 c0 38 -11 38 -110 0z"/>
<path d="M3088 853 c6 -2 18 -2 25 0 6 3 1 5 -13 5 -14 0 -19 -2 -12 -5z"/>
<path d="M0 276 l0 -276 70 0 70 0 0 89 0 89 103 4 c80 3 110 8 137 24 123 72
118 267 -10 322 -25 11 -82 17 -202 20 l-168 4 0 -276z m310 144 c13 -13 20
-33 20 -59 0 -59 -33 -81 -121 -81 l-69 0 0 80 0 80 75 0 c62 0 79 -4 95 -20z"/>
<path d="M541 278 l-1 -278 65 0 65 0 0 115 0 115 51 0 51 0 -54 59 c-29 33
-77 99 -106 148 -28 48 -56 95 -61 103 -7 10 -10 -81 -10 -262z"/>
<path d="M580 540 c0 -14 54 -119 74 -145 14 -19 15 -13 16 68 l0 87 -45 0
c-25 0 -45 -5 -45 -10z"/>
<path d="M877 544 c-4 -4 -7 -49 -7 -100 l0 -93 -92 -3 -93 -3 57 -58 c48 -48
63 -57 93 -57 23 0 35 -5 35 -14 0 -19 22 -26 86 -26 l54 0 -2 178 -3 177 -60
3 c-34 2 -64 0 -68 -4z"/>
<path d="M1117 543 c-4 -3 -7 -80 -7 -171 0 -127 3 -163 13 -159 6 2 38 13 70
23 l57 18 0 148 0 148 -63 0 c-35 0 -67 -3 -70 -7z"/>
<path d="M1357 543 c-8 -7 -10 -243 -2 -243 2 0 34 10 70 21 l65 22 0 103 0
104 -63 0 c-35 0 -67 -3 -70 -7z"/>
<path d="M1919 523 c-24 -62 -39 -106 -36 -109 1 -2 52 3 112 9 121 14 116 10
88 85 l-16 42 -69 0 c-65 0 -69 -1 -79 -27z"/>
<path d="M2325 537 c-9 -23 -2 -82 10 -80 6 0 89 4 185 8 96 4 183 11 194 14
17 7 16 8 -5 22 -49 32 -98 41 -236 46 -123 5 -143 4 -148 -10z"/>
<path d="M2897 543 c-4 -3 -7 -20 -7 -36 0 -30 0 -30 46 -23 26 3 116 6 200 6
l154 0 0 30 0 30 -193 0 c-107 0 -197 -3 -200 -7z"/>
<path d="M3390 516 c0 -32 2 -34 46 -40 83 -11 84 -10 84 34 l0 40 -65 0 -65
0 0 -34z"/>
<path d="M3810 491 l0 -59 47 -4 c43 -3 51 0 119 52 40 30 73 58 74 63 0 4
-54 7 -120 7 l-120 0 0 -59z"/>
<path d="M4020 496 l-65 -51 76 -5 c54 -4 81 -10 93 -22 13 -14 34 -18 82 -18
74 0 81 12 41 71 -24 37 -72 64 -127 72 -31 4 -43 -1 -100 -47z"/>
<path d="M4347 543 c-4 -3 -7 -35 -7 -70 0 -75 5 -78 85 -68 l55 6 0 70 0 69
-63 0 c-35 0 -67 -3 -70 -7z"/>
<path d="M4687 544 c-4 -4 -7 -34 -7 -66 l0 -58 70 0 71 0 -3 63 -3 62 -60 3
c-34 2 -64 0 -68 -4z"/>
<path d="M4927 543 c-4 -3 -7 -30 -7 -60 l0 -53 70 0 70 0 0 60 0 60 -63 0
c-35 0 -67 -3 -70 -7z"/>
<path d="M5310 530 c-6 -12 -17 -38 -25 -59 l-13 -38 111 -11 c62 -6 113 -9
116 -7 2 2 -8 32 -21 67 l-24 63 -66 3 c-59 3 -68 0 -78 -18z"/>
<path d="M2967 472 l-77 -3 0 -235 0 -234 213 2 212 3 3 29 c2 15 1 39 -2 52
-6 24 -7 24 -146 24 l-140 0 0 65 0 65 120 0 120 0 0 50 0 50 -120 0 -120 0 0
50 0 50 130 0 c104 0 130 3 130 14 0 18 -67 28 -167 24 -43 -2 -113 -4 -156
-6z"/>
<path d="M3390 455 c-2 -114 0 -418 2 -421 2 -2 32 19 66 47 l62 50 0 159 c0
157 0 160 -22 164 -49 11 -108 11 -108 1z"/>
<path d="M2535 453 c-27 -1 -87 -5 -133 -9 l-82 -6 2 -216 3 -217 150 1 c165
0 211 12 267 68 50 51 63 92 63 201 0 85 -3 106 -23 143 l-22 42 -88 -2 c-48
-1 -109 -3 -137 -5z m65 -36 c44 -22 70 -73 70 -139 0 -114 -42 -158 -150
-158 l-60 0 0 155 0 155 58 0 c31 0 68 -6 82 -13z"/>
<path d="M1966 406 c-59 -7 -92 -16 -98 -26 -9 -17 -138 -366 -138 -375 0 -3
32 -5 72 -3 l71 3 15 43 14 42 98 0 98 0 14 -42 15 -43 71 -3 c40 -2 72 1 72
5 0 4 -34 98 -77 210 l-76 203 -31 -1 c-17 -1 -71 -7 -120 -13z m68 -107 c14
-47 26 -90 26 -97 0 -13 -120 -18 -120 -4 -1 21 56 200 61 194 4 -4 19 -45 33
-93z"/>
<path d="M3810 390 c0 -16 1 -30 3 -30 2 0 18 11 35 24 32 23 32 24 10 30 -41
10 -48 7 -48 -24z"/>
<path d="M4948 413 l-28 -4 0 -110 0 -109 70 0 70 0 0 115 0 115 -42 -1 c-24
-1 -55 -4 -70 -6z"/>
<path d="M5265 410 c-11 -18 -84 -224 -81 -227 4 -5 356 -42 397 -43 l27 0
-46 123 c-25 67 -47 124 -49 126 -4 6 -117 21 -121 16 -2 -2 8 -43 23 -92 14
-48 28 -96 31 -105 5 -16 -3 -18 -60 -18 -36 0 -66 2 -66 4 0 2 14 47 30 101
17 54 30 101 30 105 0 9 -110 18 -115 10z"/>
<path d="M3858 374 l-48 -36 0 -169 0 -170 68 3 67 3 3 88 3 87 83 0 c127 0
193 30 227 104 39 85 25 106 -73 106 -48 0 -48 0 -48 -34 0 -55 -35 -76 -126
-76 l-74 0 0 65 c0 79 -11 82 -82 29z"/>
<path d="M4728 403 c-43 -4 -48 -7 -48 -29 0 -24 -1 -24 -100 -24 -93 0 -100
1 -100 20 0 18 -7 20 -65 20 -59 0 -65 -2 -70 -22 -3 -13 -4 -99 -3 -193 l3
-170 68 -3 67 -3 0 116 0 115 100 0 100 0 0 -116 c0 -113 0 -115 22 -112 33 5
90 90 96 143 2 25 9 45 13 45 5 0 9 50 9 110 0 108 0 110 -22 108 -13 -1 -44
-3 -70 -5z"/>
<path d="M1420 305 l-65 -22 0 -139 0 -139 173 -3 172 -2 0 60 0 60 -105 0
-104 0 -3 103 -3 104 -65 -22z"/>
<path d="M1175 215 l-60 -23 0 -93 0 -94 68 -3 67 -3 0 121 c0 66 -3 120 -7
119 -5 0 -35 -11 -68 -24z"/>
<path d="M872 94 l3 -89 68 -3 67 -3 0 86 0 85 -32 0 c-18 0 -50 3 -71 6 l-38
7 3 -89z"/>
<path d="M4927 174 c-4 -4 -7 -45 -7 -91 l0 -83 70 0 70 0 0 85 c0 81 -1 85
-22 86 -13 0 -41 2 -63 5 -22 3 -44 2 -48 -2z"/>
<path d="M5146 92 c-14 -37 -26 -73 -26 -80 0 -8 21 -12 69 -12 l69 0 14 43
15 42 100 3 100 3 13 -46 13 -45 73 0 74 0 -21 58 c-12 31 -23 58 -24 60 -4 5
-363 41 -407 42 -36 0 -37 -1 -62 -68z"/>
<path d="M4806 113 c-4 -14 -21 -46 -37 -70 l-30 -43 41 0 40 0 0 70 c0 75 -4
86 -14 43z"/>
<path d="M3456 62 l-69 -57 168 -3 c92 -1 170 0 173 3 3 3 -6 30 -21 60 l-27
55 -77 -1 -78 0 -69 -57z"/>
<path d="M3711 90 c6 -16 13 -30 15 -30 2 0 4 14 4 30 0 20 -5 30 -14 30 -12
0 -13 -6 -5 -30z"/>
<path d="M5708 73 c6 -2 12 -20 12 -39 0 -20 4 -33 9 -30 5 3 7 14 4 25 -2 10
3 25 12 35 15 15 14 16 -17 15 -18 0 -27 -3 -20 -6z"/>
<path d="M5771 38 c1 -28 3 -34 6 -18 l5 24 14 -24 14 -25 7 25 7 25 7 -25 c6
-20 7 -17 8 18 1 50 -6 54 -21 11 l-11 -31 -13 31 c-18 42 -24 39 -23 -11z"/>
</g>
</svg>
